<svg xmlns="http://www.w3.org/2000/svg" xmlns:xlink="http://www.w3.org/1999/xlink" width="500" zoomAndPan="magnify" viewBox="0 0 375 374.999991" height="500" preserveAspectRatio="xMidYMid meet" version="1.0"><defs><g/></defs><path stroke-linecap="butt" transform="matrix(0.75, 0, 0, 0.75, 102.615233, 139.457979)" fill="none" stroke-linejoin="miter" d="M 4.138023 69.852908 L 4.138023 72.998741 L 20.236982 72.998741 L 20.236982 69.852908 L 16.559899 69.279991 C 15.64844 69.097699 15.05469 68.811241 14.789065 68.415408 C 14.533857 68.019574 14.42969 67.279991 14.471357 66.196658 L 16.434899 32.769572 L 16.434899 32.238322 L 28.205733 65.602908 L 34.752608 65.602908 L 46.986984 32.30603 L 46.986984 32.832072 L 48.950526 65.941449 C 48.950526 67.154991 48.820318 67.977908 48.554693 68.415408 C 48.299484 68.852908 47.752609 69.139366 46.924484 69.279991 L 42.867192 69.852908 L 42.867192 72.998741 L 61.507818 72.998741 L 61.507818 69.852908 L 57.513026 69.279991 C 56.695318 69.097699 56.138026 68.811241 55.851568 68.415408 C 55.56511 68.019574 55.419276 67.279991 55.419276 66.196658 L 53.455735 34.269572 C 53.455735 33.045614 53.591151 32.201864 53.856776 31.74353 C 54.122401 31.285197 54.643235 31.014364 55.419276 30.93103 L 59.544277 30.33728 L 59.544277 27.207072 L 44.434901 27.207072 L 32.726567 59.727907 L 32.471358 60.368532 L 21.273441 27.207072 L 6.101565 27.207072 L 6.101565 30.33728 L 9.757815 30.93103 C 10.632815 31.113322 11.195315 31.389364 11.450523 31.759155 C 11.716148 32.123739 11.851565 32.873739 11.851565 34.014364 L 9.888023 65.941449 C 9.841148 66.899783 9.726565 67.660199 9.533857 68.222699 C 9.341148 68.790408 8.789065 69.139366 7.872398 69.279991 Z M 69.674486 69.852908 L 69.674486 72.998741 L 88.315112 72.998741 L 88.315112 69.852908 L 84.32032 69.279991 C 83.502612 69.097699 82.94532 68.811241 82.658861 68.415408 C 82.372403 68.019574 82.22657 67.279991 82.22657 66.196658 L 82.22657 34.269572 C 82.22657 33.097697 82.361986 32.285197 82.627611 31.826864 C 82.893236 31.36853 83.41407 31.066447 84.19532 30.93103 L 88.315112 30.33728 L 88.315112 27.207072 L 69.674486 27.207072 L 69.674486 30.33728 L 73.601569 30.93103 C 74.476569 31.113322 75.054694 31.389364 75.330736 31.759155 C 75.617194 32.123739 75.757819 32.873739 75.757819 34.014364 L 75.757819 65.941449 C 75.757819 67.154991 75.627611 67.977908 75.361986 68.415408 C 75.106778 68.852908 74.559903 69.139366 73.731778 69.279991 Z M 96.424487 69.852908 L 96.424487 72.998741 L 113.372405 72.998741 C 117.429697 72.998741 121.049489 72.457075 124.231781 71.368533 C 127.414073 70.274783 130.122406 68.670616 132.346365 66.561241 C 134.570323 64.446657 136.257823 61.884157 137.408865 58.878949 C 138.570323 55.868532 139.148449 52.462282 139.148449 48.660198 C 139.148449 44.040406 138.23699 40.134156 136.403657 36.951864 C 134.570323 33.769572 131.877615 31.352905 128.320323 29.701863 C 124.763031 28.040405 120.393239 27.207072 115.210947 27.207072 L 96.424487 27.207072 L 96.424487 30.33728 L 100.085946 30.93103 C 100.955738 31.113322 101.533863 31.389364 101.809904 31.759155 C 102.096363 32.123739 102.242196 32.873739 102.242196 34.014364 L 102.242196 65.941449 C 102.242196 67.154991 102.106779 67.977908 101.841154 68.415408 C 101.585946 68.852908 101.049488 69.139366 100.226571 69.279991 Z M 121.773447 68.191449 C 119.440114 69.003949 116.664072 69.404991 113.434905 69.404991 C 112.60678 69.404991 111.73178 69.373741 110.815113 69.311241 C 109.898447 69.238324 109.205738 69.154991 108.726572 69.071658 L 108.726572 30.738322 L 114.679697 30.738322 C 118.471364 30.738322 121.669281 31.436239 124.263031 32.832072 C 126.861989 34.227905 128.820323 36.295614 130.14324 39.045614 C 131.471365 41.790406 132.138031 45.170615 132.138031 49.18624 C 132.138031 52.634157 131.76824 55.639365 131.01824 58.196657 C 130.283865 60.738324 129.14324 62.842491 127.585948 64.503949 C 126.044281 66.154991 124.106781 67.384158 121.773447 68.191449 Z M 140.106782 69.852908 L 140.106782 72.998741 L 155.950533 72.998741 L 155.950533 69.915408 L 152.216158 69.404991 C 151.257824 69.181033 150.664074 68.811241 150.440116 68.290408 C 150.231783 67.764366 150.320324 66.962283 150.716158 65.878949 L 153.460949 57.889365 L 170.997409 57.889365 L 173.809909 66.134158 C 174.247409 67.217491 174.361993 67.998741 174.158867 68.477908 C 173.966159 68.957074 173.434909 69.269574 172.565117 69.404991 L 168.763034 69.852908 L 168.763034 72.998741 L 186.236993 72.998741 L 186.236993 69.727908 L 183.549493 69.196658 C 182.638035 68.988324 182.033868 68.660199 181.74741 68.222699 C 181.471368 67.790408 181.111993 67.003949 180.674493 65.878949 L 167.002617 27.207072 L 160.075533 27.207072 L 146.257824 65.795616 C 145.736991 67.149783 145.299491 68.035199 144.945324 68.446658 C 144.606782 68.863324 144.044282 69.160199 143.252615 69.342491 Z M 169.752617 54.15499 L 154.768241 54.15499 L 162.231783 32.639364 L 162.486992 32.639364 Z M 205.84637 73.800825 L 205.84637 78.238325 L 209.184911 78.238325 L 209.184911 73.868533 C 211.497412 73.707075 213.580745 73.12895 215.429704 72.123741 C 217.632829 70.920616 219.367204 69.264366 220.638037 67.154991 C 221.903662 65.035199 222.539079 62.623741 222.539079 59.920615 C 222.539079 58.21749 222.299496 56.707074 221.820329 55.399782 C 221.341162 54.087282 220.570329 52.899782 219.518245 51.837282 C 218.476579 50.774782 217.080745 49.77999 215.335954 48.868531 C 213.632828 47.972698 211.580745 47.12374 209.184911 46.31124 L 209.184911 30.134155 C 210.898453 30.49353 212.382828 31.24353 213.643245 32.384155 C 215.47137 34.035197 216.888037 36.582072 217.888037 40.035198 L 221.549496 39.509156 L 220.111996 26.285197 L 217.044287 26.285197 L 216.195329 29.686238 C 214.97137 28.639363 213.497412 27.816447 211.773453 27.207072 C 210.919287 26.904988 210.054703 26.670613 209.184911 26.519572 L 209.184911 21.441446 L 205.84637 21.441446 L 205.84637 26.295613 C 204.013036 26.352905 202.325536 26.654988 200.783869 27.207072 C 199.059911 27.816447 197.585952 28.68103 196.361994 29.795614 C 195.143244 30.904989 194.200535 32.233114 193.518244 33.790405 C 192.846369 35.332072 192.513035 37.040406 192.513035 38.915406 C 192.513035 41.186239 192.945327 43.139364 193.820327 44.779989 C 194.695327 46.40499 196.111994 47.832073 198.070327 49.056031 C 200.013036 50.274782 202.606786 51.399782 205.84637 52.441448 L 205.84637 69.608116 C 203.596369 69.306033 201.601578 68.441449 199.856786 67.009158 C 197.664077 65.201866 195.914077 62.509157 194.601577 58.931032 L 190.867202 59.264365 L 192.174494 73.399783 L 195.065119 73.399783 L 196.101577 69.535199 C 197.497411 70.884158 199.252619 71.957075 201.356786 72.743533 C 202.830744 73.2852 204.325536 73.634158 205.84637 73.800825 Z M 209.184911 69.654991 L 209.184911 53.660198 C 211.28387 54.540407 212.856787 55.472699 213.898453 56.451865 C 215.429704 57.889365 216.195329 59.806032 216.195329 62.201866 C 216.195329 63.779991 215.867204 65.134157 215.205745 66.274783 C 214.554703 67.404991 213.59637 68.259158 212.330745 68.847699 C 211.424495 69.264366 210.37762 69.535199 209.184911 69.654991 Z M 205.84637 45.056031 C 204.731786 44.587281 203.773453 44.123739 202.971369 43.660198 C 201.492203 42.806031 200.434911 41.858114 199.794286 40.816448 C 199.164077 39.764364 198.851577 38.519572 198.851577 37.082072 C 198.851577 34.904989 199.570327 33.165405 201.007828 31.858114 C 202.263036 30.71228 203.877619 30.066447 205.84637 29.920614 Z M 205.84637 45.056031 " stroke="#7e5a00" stroke-width="4.906912" stroke-opacity="1" stroke-miterlimit="4"/><g fill="#fbc02d" fill-opacity="1"><g transform="translate(102.626952, 194.207975)"><g><path d="M 3.09375 0 L 3.09375 -2.359375 L 5.890625 -2.796875 C 6.578125 -2.890625 6.992188 -3.148438 7.140625 -3.578125 C 7.285156 -4.003906 7.375 -4.578125 7.40625 -5.296875 L 8.875 -29.234375 C 8.875 -30.085938 8.773438 -30.648438 8.578125 -30.921875 C 8.390625 -31.203125 7.96875 -31.410156 7.3125 -31.546875 L 4.5625 -31.984375 L 4.5625 -34.34375 L 15.9375 -34.34375 L 24.328125 -9.46875 L 24.53125 -9.953125 L 33.3125 -34.34375 L 44.640625 -34.34375 L 44.640625 -31.984375 L 41.5625 -31.546875 C 40.96875 -31.484375 40.570312 -31.28125 40.375 -30.9375 C 40.175781 -30.59375 40.078125 -29.960938 40.078125 -29.046875 L 41.5625 -5.109375 C 41.5625 -4.285156 41.664062 -3.726562 41.875 -3.4375 C 42.082031 -3.144531 42.5 -2.929688 43.125 -2.796875 L 46.125 -2.359375 L 46.125 0 L 32.140625 0 L 32.140625 -2.359375 L 35.171875 -2.796875 C 35.796875 -2.890625 36.207031 -3.097656 36.40625 -3.421875 C 36.601562 -3.753906 36.703125 -4.378906 36.703125 -5.296875 L 35.234375 -30.125 L 35.234375 -30.515625 L 26.046875 -5.546875 L 21.140625 -5.546875 L 12.3125 -30.5625 L 12.3125 -30.171875 L 10.84375 -5.109375 C 10.8125 -4.285156 10.890625 -3.726562 11.078125 -3.4375 C 11.273438 -3.144531 11.71875 -2.929688 12.40625 -2.796875 L 15.15625 -2.359375 L 15.15625 0 Z M 3.09375 0 "/></g></g></g><g fill="#fbc02d" fill-opacity="1"><g transform="translate(151.828853, 194.207975)"><g><path d="M 3.046875 0 L 3.046875 -2.359375 L 6.078125 -2.796875 C 6.703125 -2.890625 7.113281 -3.097656 7.3125 -3.421875 C 7.507812 -3.753906 7.609375 -4.378906 7.609375 -5.296875 L 7.609375 -29.234375 C 7.609375 -30.085938 7.5 -30.648438 7.28125 -30.921875 C 7.070312 -31.203125 6.640625 -31.410156 5.984375 -31.546875 L 3.046875 -31.984375 L 3.046875 -34.34375 L 17.03125 -34.34375 L 17.03125 -31.984375 L 13.9375 -31.546875 C 13.34375 -31.453125 12.945312 -31.234375 12.75 -30.890625 C 12.5625 -30.546875 12.46875 -29.929688 12.46875 -29.046875 L 12.46875 -5.109375 C 12.46875 -4.285156 12.570312 -3.726562 12.78125 -3.4375 C 12.988281 -3.144531 13.40625 -2.929688 14.03125 -2.796875 L 17.03125 -2.359375 L 17.03125 0 Z M 3.046875 0 "/></g></g></g><g fill="#fbc02d" fill-opacity="1"><g transform="translate(171.892244, 194.207975)"><g><path d="M 3.046875 0 L 3.046875 -2.359375 L 5.890625 -2.796875 C 6.503906 -2.890625 6.910156 -3.097656 7.109375 -3.421875 C 7.304688 -3.753906 7.40625 -4.378906 7.40625 -5.296875 L 7.40625 -29.234375 C 7.40625 -30.085938 7.296875 -30.648438 7.078125 -30.921875 C 6.867188 -31.203125 6.441406 -31.410156 5.796875 -31.546875 L 3.046875 -31.984375 L 3.046875 -34.34375 L 17.125 -34.34375 C 21.019531 -34.34375 24.296875 -33.71875 26.953125 -32.46875 C 29.617188 -31.226562 31.640625 -29.414062 33.015625 -27.03125 C 34.390625 -24.644531 35.078125 -21.71875 35.078125 -18.25 C 35.078125 -15.40625 34.644531 -12.851562 33.78125 -10.59375 C 32.914062 -8.34375 31.644531 -6.421875 29.96875 -4.828125 C 28.300781 -3.242188 26.273438 -2.039062 23.890625 -1.21875 C 21.503906 -0.40625 18.789062 0 15.75 0 Z M 15.796875 -2.703125 C 18.210938 -2.703125 20.296875 -3.003906 22.046875 -3.609375 C 23.796875 -4.210938 25.25 -5.132812 26.40625 -6.375 C 27.570312 -7.625 28.429688 -9.203125 28.984375 -11.109375 C 29.546875 -13.023438 29.828125 -15.273438 29.828125 -17.859375 C 29.828125 -20.867188 29.328125 -23.398438 28.328125 -25.453125 C 27.335938 -27.515625 25.867188 -29.066406 23.921875 -30.109375 C 21.972656 -31.160156 19.578125 -31.6875 16.734375 -31.6875 L 12.265625 -31.6875 L 12.265625 -2.9375 C 12.628906 -2.875 13.148438 -2.816406 13.828125 -2.765625 C 14.515625 -2.722656 15.171875 -2.703125 15.796875 -2.703125 Z M 15.796875 -2.703125 "/></g></g></g><g fill="#fbc02d" fill-opacity="1"><g transform="translate(206.965877, 194.207975)"><g><path d="M 0.734375 0 L 0.734375 -2.359375 L 3.09375 -2.75 C 3.675781 -2.875 4.097656 -3.09375 4.359375 -3.40625 C 4.628906 -3.71875 4.957031 -4.378906 5.34375 -5.390625 L 15.703125 -34.34375 L 20.90625 -34.34375 L 31.15625 -5.34375 C 31.476562 -4.5 31.742188 -3.910156 31.953125 -3.578125 C 32.171875 -3.253906 32.625 -3.007812 33.3125 -2.84375 L 35.328125 -2.453125 L 35.328125 0 L 22.21875 0 L 22.21875 -2.359375 L 25.078125 -2.703125 C 25.722656 -2.796875 26.117188 -3.019531 26.265625 -3.375 C 26.421875 -3.738281 26.332031 -4.332031 26 -5.15625 L 23.890625 -11.328125 L 10.75 -11.328125 L 8.6875 -5.34375 C 8.394531 -4.53125 8.328125 -3.925781 8.484375 -3.53125 C 8.648438 -3.132812 9.09375 -2.859375 9.8125 -2.703125 L 12.609375 -2.3125 L 12.609375 0 Z M 11.71875 -14.125 L 22.96875 -14.125 L 17.515625 -30.265625 L 17.3125 -30.265625 Z M 11.71875 -14.125 "/></g></g></g><g fill="#fbc02d" fill-opacity="1"><g transform="translate(243.021115, 194.207975)"><g><path d="M 13.984375 3.921875 L 13.984375 -38.65625 L 16.484375 -38.65625 L 16.484375 3.921875 Z M 15.5 0.6875 C 13.832031 0.6875 12.207031 0.394531 10.625 -0.1875 C 9.039062 -0.78125 7.722656 -1.582031 6.671875 -2.59375 L 5.890625 0.296875 L 3.734375 0.296875 L 2.75 -10.296875 L 5.546875 -10.546875 C 6.523438 -7.867188 7.835938 -5.847656 9.484375 -4.484375 C 11.140625 -3.128906 13.097656 -2.453125 15.359375 -2.453125 C 16.734375 -2.453125 17.894531 -2.671875 18.84375 -3.109375 C 19.789062 -3.554688 20.507812 -4.203125 21 -5.046875 C 21.488281 -5.898438 21.734375 -6.914062 21.734375 -8.09375 C 21.734375 -9.894531 21.160156 -11.332031 20.015625 -12.40625 C 18.867188 -13.488281 16.875 -14.488281 14.03125 -15.40625 C 11.582031 -16.1875 9.617188 -17.035156 8.140625 -17.953125 C 6.671875 -18.867188 5.609375 -19.941406 4.953125 -21.171875 C 4.296875 -22.398438 3.96875 -23.863281 3.96875 -25.5625 C 3.96875 -26.96875 4.222656 -28.25 4.734375 -29.40625 C 5.242188 -30.570312 5.957031 -31.570312 6.875 -32.40625 C 7.789062 -33.238281 8.894531 -33.882812 10.1875 -34.34375 C 11.476562 -34.800781 12.90625 -35.03125 14.46875 -35.03125 C 15.8125 -35.03125 17.128906 -34.800781 18.421875 -34.34375 C 19.710938 -33.882812 20.816406 -33.265625 21.734375 -32.484375 L 22.375 -35.03125 L 24.671875 -35.03125 L 25.75 -25.125 L 23.015625 -24.734375 C 22.253906 -27.316406 21.1875 -29.226562 19.8125 -30.46875 C 18.445312 -31.707031 16.71875 -32.328125 14.625 -32.328125 C 12.851562 -32.328125 11.425781 -31.835938 10.34375 -30.859375 C 9.269531 -29.878906 8.734375 -28.570312 8.734375 -26.9375 C 8.734375 -25.851562 8.96875 -24.921875 9.4375 -24.140625 C 9.914062 -23.359375 10.707031 -22.644531 11.8125 -22 C 12.925781 -21.363281 14.4375 -20.71875 16.34375 -20.0625 C 18.207031 -19.445312 19.789062 -18.796875 21.09375 -18.109375 C 22.40625 -17.421875 23.453125 -16.675781 24.234375 -15.875 C 25.023438 -15.070312 25.597656 -14.175781 25.953125 -13.1875 C 26.316406 -12.207031 26.5 -11.082031 26.5 -9.8125 C 26.5 -7.78125 26.019531 -5.972656 25.0625 -4.390625 C 24.113281 -2.804688 22.8125 -1.5625 21.15625 -0.65625 C 19.507812 0.238281 17.625 0.6875 15.5 0.6875 Z M 15.5 0.6875 "/></g></g></g></svg>